<svg width="62" height="43" viewBox="0 0 62 43" fill="none" xmlns="http://www.w3.org/2000/svg">
<rect x="0.5" y="0.5" width="61" height="42" rx="9.5" fill="white" stroke="#E0E0E0"/>
<path fill-rule="evenodd" clip-rule="evenodd" d="M41.0587 12.8324C40.269 12.4831 38.8958 12.1021 37.8061 12.1021C34.0906 12.1021 31.4765 14.1789 31.4444 17.274C31.4181 19.6757 33.3639 20.8804 34.7672 21.7491L34.7952 21.7664C36.2005 22.6345 36.5858 22.9838 36.5782 23.6866C36.5688 24.6753 35.494 25.2427 34.2417 25.2427C32.8742 25.2427 32.1961 25.0035 30.5963 24.2519L29.9314 27.6922C31.5029 28.3166 32.198 28.4988 34.1246 28.5306C38.3481 28.5306 40.3504 25.9074 40.3747 23.2484C40.3974 21.9676 40.1594 20.7884 38.3481 19.4758C37.8939 19.1462 37.4434 18.8674 37.032 18.6126C36.0054 17.9771 35.2202 17.491 35.2202 16.7384C35.2202 16.0906 36.1079 15.4152 37.5435 15.3877C38.5314 15.3729 39.7061 15.8069 40.4201 16.1287L41.0587 12.8324ZM25.1619 12.3963L21.3352 12.3921L17.499 23.1553L17.1315 20.9621C16.5362 17.4091 16.1558 15.1382 15.9879 14.1493C15.7895 12.9722 15.1719 12.3985 14.1142 12.3985H8V12.8324C9.49596 13.3511 10.5631 13.7322 11.2035 13.9799C11.9231 14.2572 12.2971 14.8437 12.486 15.682C13.4359 19.8886 14.398 24.0917 15.3721 28.2911L19.2461 28.2956L25.1619 12.3963ZM49.9738 28.2934L49.5488 25.9117H44.8003L44.0446 28.2765L40.2387 28.2848C42.0506 23.4011 43.8664 18.5192 45.6862 13.639C45.9959 12.8113 46.5455 12.39 47.3559 12.3942C47.9755 12.4006 48.9858 12.4006 50.3894 12.3963L53.332 28.287L49.9738 28.2934ZM45.8695 22.6493H48.9294L47.7865 16.6791L45.8695 22.6493ZM30.4206 12.3963L27.3947 28.2911L23.753 28.287L26.7752 12.3921L30.4206 12.3963Z" fill="#0121BC"/>
</svg>
