<svg width="121" height="15" viewBox="0 0 121 15" fill="none" xmlns="http://www.w3.org/2000/svg">
<path d="M7.60768 15C3.22325 15 0 11.9299 0 7.54121V7.5C0 3.2967 3.20323 0 7.5276 0C10.0101 0 11.7118 0.762362 13.2133 2.08104L10.931 4.92445C9.91 4.03846 8.96905 3.56456 7.54762 3.56456C5.5456 3.56456 3.964 5.29533 3.964 7.5V7.54121C3.964 9.89011 5.5456 11.5591 7.76784 11.5591C8.72881 11.5591 9.44954 11.353 10.0101 10.9615V9.21016H7.26733V6.28434H13.6938V12.7541C12.1923 14.0522 10.1903 15 7.60768 15Z" fill="#04C495"/>
<path d="M14.6938 14.7115V0.288462H25.9652V3.66758H18.5377V5.87225H25.2645V9.02472H18.5377V11.3118H26.0653V14.7115H14.6938Z" fill="#04C495"/>
<path d="M31.2495 14.7115V3.79121H27.0653V0.288462H39.3377V3.79121H35.1334V14.7115H31.2495Z" fill="#04C495"/>
<path d="M46.0036 14.763L40.3379 0.23695H44.6623L47.8455 9.3647L51.0487 0.23695H55.293L49.6072 14.763H46.0036Z" fill="#8C4AFF"/>
<path d="M56.293 14.7115V0.288462H60.1769V14.7115H56.293Z" fill="#8C4AFF"/>
<path d="M67.7435 14.9588C65.241 14.9588 62.9387 14.1552 61.1769 12.5687L63.3391 9.91071C64.7605 11.0646 66.2821 11.6415 67.8837 11.6415C68.9447 11.6415 69.5053 11.2912 69.5053 10.6525V10.6113C69.5053 9.99313 69.0448 9.70467 67.1229 9.21017C64.1599 8.50962 61.8376 7.66484 61.8376 4.6978V4.65659C61.8376 1.95742 63.8997 0.0412102 67.2631 0.0412102C69.6655 0.0412102 71.5073 0.700551 73.0289 1.95742L71.0869 4.78022C69.8056 3.81181 68.4242 3.35852 67.163 3.35852C66.222 3.35852 65.7615 3.7294 65.7615 4.28571V4.32692C65.7615 4.96566 66.242 5.29533 68.204 5.72802C71.4072 6.44918 73.4093 7.5206 73.4093 10.2198V10.261C73.4093 13.2074 71.147 14.9588 67.7435 14.9588Z" fill="#8C4AFF"/>
<path d="M74.4093 14.763L80.3553 0.23695H84.099L90.0651 14.763H85.9009L84.8998 12.1669H79.4744L78.4734 14.763H74.4093ZM80.6155 9.05563H83.7587L82.1971 4.97596L80.6155 9.05563Z" fill="#8C4AFF"/>
<path d="M98.6727 15C94.2883 15 91.0651 11.9299 91.0651 7.54121V7.5C91.0651 3.2967 94.2683 0 98.5927 0C101.075 0 102.777 0.762362 104.278 2.08104L101.996 4.92445C100.975 4.03846 100.034 3.56456 98.6127 3.56456C96.6106 3.56456 95.0291 5.29533 95.0291 7.5V7.54121C95.0291 9.89011 96.6106 11.5591 98.8329 11.5591C99.7939 11.5591 100.515 11.353 101.075 10.9615V9.21016H98.3324V6.28434H104.759V12.7541C103.257 14.0522 101.255 15 98.6727 15Z" fill="#8C4AFF"/>
<path d="M113.286 15C108.962 15 105.759 11.6621 105.759 7.54121V7.5C105.759 3.35852 109.002 0 113.327 0C117.651 0 120.854 3.33791 120.854 7.45879V7.5C120.854 11.6415 117.611 15 113.286 15ZM113.327 11.3942C115.449 11.3942 116.87 9.62225 116.87 7.54121V7.5C116.87 5.39835 115.429 3.60577 113.286 3.60577C111.144 3.60577 109.723 5.37775 109.723 7.45879V7.5C109.723 9.56044 111.184 11.3942 113.327 11.3942Z" fill="#8C4AFF"/>
</svg>
