<svg width="62" height="43" viewBox="0 0 62 43" fill="none" xmlns="http://www.w3.org/2000/svg">
<rect x="0.5" y="0.5" width="61" height="42" rx="9.5" fill="white" stroke="#E0E0E0"/>
<path d="M17.7329 37.264V35.1735C17.7329 34.3738 17.2425 33.8501 16.4006 33.8501C15.9797 33.8501 15.522 33.9882 15.2073 34.4428C14.9622 34.0612 14.6107 33.8501 14.0835 33.8501C13.7321 33.8501 13.3806 33.9557 13.1027 34.3373V33.9191H12.3672V37.264H13.1027V35.417C13.1027 34.8244 13.4174 34.5443 13.9078 34.5443C14.3982 34.5443 14.6434 34.8568 14.6434 35.417V37.264H15.379V35.417C15.379 34.8244 15.7304 34.5443 16.184 34.5443C16.6744 34.5443 16.9196 34.8568 16.9196 35.417V37.264H17.7329ZM28.6441 33.9191H27.4508V32.9084H26.7152V33.9191H26.0491V34.5808H26.7152V36.1152C26.7152 36.8824 27.0299 37.333 27.8717 37.333C28.1864 37.333 28.5378 37.2275 28.783 37.0894L28.5705 36.4603C28.358 36.5983 28.1128 36.6348 27.9371 36.6348C27.5857 36.6348 27.4467 36.4237 27.4467 36.0787V34.5808H28.64V33.9191H28.6441ZM34.8884 33.8461C34.4675 33.8461 34.1855 34.0572 34.0098 34.3332V33.9151H33.2742V37.2599H34.0098V35.3764C34.0098 34.8203 34.255 34.5037 34.7127 34.5037C34.8516 34.5037 35.0274 34.5402 35.1704 34.5727L35.3829 33.8745C35.2358 33.8461 35.0274 33.8461 34.8884 33.8461ZM25.4525 34.1952C25.101 33.9516 24.6106 33.8461 24.0834 33.8461C23.2416 33.8461 22.6817 34.2642 22.6817 34.9258C22.6817 35.482 23.1027 35.7986 23.8382 35.9001L24.1897 35.9366C24.5738 36.0056 24.7863 36.1112 24.7863 36.2857C24.7863 36.5293 24.5044 36.7038 24.014 36.7038C23.5236 36.7038 23.1354 36.5293 22.8902 36.3547L22.5387 36.9108C22.9229 37.1909 23.45 37.3289 23.9772 37.3289C24.958 37.3289 25.5219 36.8743 25.5219 36.2492C25.5219 35.6565 25.0642 35.344 24.3654 35.2384L24.014 35.2019C23.6993 35.1653 23.4541 35.0963 23.4541 34.8893C23.4541 34.6458 23.6993 34.5077 24.0875 34.5077C24.5085 34.5077 24.9294 34.6823 25.1419 34.7878L25.4525 34.1952ZM45.0232 33.8461C44.6023 33.8461 44.3203 34.0572 44.1446 34.3332V33.9151H43.409V37.2599H44.1446V35.3764C44.1446 34.8203 44.3898 34.5037 44.8475 34.5037C44.9864 34.5037 45.1621 34.5402 45.3052 34.5727L45.5177 33.8826C45.3746 33.8461 45.1662 33.8461 45.0232 33.8461ZM35.624 35.5916C35.624 36.6023 36.3269 37.333 37.4139 37.333C37.9043 37.333 38.2558 37.2275 38.6072 36.9514L38.2558 36.3588C37.9738 36.5699 37.6959 36.6713 37.3772 36.6713C36.7805 36.6713 36.3596 36.2532 36.3596 35.5916C36.3596 34.9624 36.7805 34.5443 37.3772 34.5118C37.6918 34.5118 37.9738 34.6173 38.2558 34.8244L38.6072 34.2317C38.2558 33.9516 37.9043 33.8501 37.4139 33.8501C36.3269 33.8461 35.624 34.5808 35.624 35.5916ZM42.4282 33.9191H41.6926V34.3373C41.4474 34.0247 41.096 33.8501 40.6383 33.8501C39.6902 33.8501 38.9546 34.5808 38.9546 35.5916C38.9546 36.6023 39.6902 37.333 40.6383 37.333C41.1287 37.333 41.4801 37.1585 41.6926 36.8459V37.264H42.4282V33.9191ZM39.727 35.5916C39.727 34.9989 40.1111 34.5118 40.7445 34.5118C41.3412 34.5118 41.7621 34.9664 41.7621 35.5916C41.7621 36.1842 41.3412 36.6713 40.7445 36.6713C40.1152 36.6348 39.727 36.1802 39.727 35.5916ZM30.9244 33.8461C29.9436 33.8461 29.2407 34.5443 29.2407 35.5875C29.2407 36.6348 29.9436 37.3289 30.9612 37.3289C31.4516 37.3289 31.942 37.1909 32.3302 36.8743L31.9788 36.3507C31.6968 36.5617 31.3453 36.6998 30.998 36.6998C30.5403 36.6998 30.0867 36.4887 29.9804 35.9001H32.4692C32.4692 35.7945 32.4692 35.7255 32.4692 35.62C32.5018 34.5443 31.8684 33.8461 30.9244 33.8461ZM30.9244 34.4753C31.3821 34.4753 31.6968 34.7554 31.7663 35.2749H30.0131C30.0826 34.8244 30.3972 34.4753 30.9244 34.4753ZM49.1997 32.5958H48.4641V34.3373C48.2189 34.0247 47.8675 33.8501 47.4098 33.8501C46.4617 33.8501 45.7261 34.5808 45.7261 35.5916C45.7261 36.6023 46.4617 37.333 47.4098 37.333C47.9002 37.333 48.2516 37.1585 48.4641 36.8459V37.264H49.1997V32.5958ZM46.4985 35.5916C46.4985 34.9989 46.8826 34.5118 47.516 34.5118C48.1127 34.5118 48.5336 34.9664 48.5336 35.5916C48.5336 36.1842 48.1127 36.6713 47.516 36.6713C46.8826 36.6348 46.4985 36.1802 46.4985 35.5916ZM21.8726 33.9191H21.137V34.3373C20.8918 34.0247 20.5404 33.8501 20.0827 33.8501C19.1346 33.8501 18.399 34.5808 18.399 35.5916C18.399 36.6023 19.1346 37.333 20.0827 37.333C20.5731 37.333 20.9245 37.1585 21.137 36.8459V37.264H21.8726V33.9191ZM19.1387 35.5916C19.1387 34.9989 19.5228 34.5118 20.1562 34.5118C20.7529 34.5118 21.1738 34.9664 21.1738 35.5916C21.1738 36.1842 20.7529 36.6713 20.1562 36.6713C19.5228 36.6348 19.1387 36.1802 19.1387 35.5916Z" fill="black"/>
<path d="M36.2572 8.5166H25.207V28.2366H36.2572V8.5166Z" fill="#FF5A00"/>
<path d="M25.9429 18.3762C25.9429 14.3697 27.839 10.8137 30.7487 8.51619C28.6073 6.84377 25.9061 5.83301 22.9596 5.83301C15.9797 5.83301 10.332 11.4429 10.332 18.3762C10.332 25.3094 15.9797 30.9193 22.9596 30.9193C25.9061 30.9193 28.6073 29.9086 30.7487 28.2362C27.8349 25.9711 25.9429 22.3827 25.9429 18.3762Z" fill="#3498DB"/>
<path d="M51.1667 18.3762C51.1667 25.3094 45.519 30.9193 38.5391 30.9193C35.5926 30.9193 32.8914 29.9086 30.75 28.2362C33.6964 25.9345 35.5558 22.3827 35.5558 18.3762C35.5558 14.3697 33.6597 10.8137 30.75 8.51619C32.8873 6.84377 35.5885 5.83301 38.535 5.83301C45.519 5.83301 51.1667 11.4795 51.1667 18.3762Z" fill="#2ECC71"/>
</svg>
