<svg width="62" height="43" viewBox="0 0 62 43" fill="none" xmlns="http://www.w3.org/2000/svg">
<rect x="0.5" y="0.5" width="61" height="42" rx="9.5" fill="white" stroke="#E0E0E0"/>
<path d="M12.4207 19.3202L13.8861 22.8791H10.9553L12.4207 19.3202ZM42.9666 19.4725H37.3142V21.0521H42.8715V23.412H37.3142V25.1629H42.9666V26.5713L46.9062 22.3082L42.9666 17.8548V19.4725ZM16.2461 15.019H23.8397L25.5336 18.6922L27.0942 15H46.792L48.8474 17.2648L50.9599 15H60L53.3199 22.3272L59.9429 29.5973H50.7506L48.6952 27.3326L46.5636 29.5973H14.4381L13.5055 27.3326H11.3549L10.4224 29.5973H3L9.2424 15H15.7513L16.2461 15.019ZM32.7085 17.0745H28.4454L25.5907 23.7927L22.5075 17.0745H18.2825V26.2097L14.3619 17.0745H10.5746L6.04508 27.5419H8.99499L9.92755 25.2771H14.8948L15.8274 27.5419H21.004V20.0624L24.3346 27.5419H26.5993L29.9109 20.0815V27.5419H32.6895L32.7085 17.0745ZM50.4461 22.3272L55.2611 17.0745H51.7973L48.7523 20.3479L45.8023 17.0745H34.6117V27.5609H45.6501L48.7142 24.2494L51.6641 27.5609H55.223L50.4461 22.3272Z" fill="#286CB4"/>
</svg>
