<svg width="62" height="43" viewBox="0 0 62 43" fill="none" xmlns="http://www.w3.org/2000/svg">
<rect x="0.5" y="0.5" width="61" height="42" rx="9.5" fill="white" stroke="#E0E0E0"/>
<path d="M15.1359 14.5785C14.5499 15.254 13.6123 15.7869 12.6747 15.7108C12.5575 14.7973 13.0166 13.8268 13.5537 13.2274C14.1397 12.5328 15.1652 12.0381 15.9954 12C16.0931 12.9515 15.7122 13.8839 15.1359 14.5785ZM15.9857 15.8915C14.6281 15.8154 13.4658 16.6432 12.8212 16.6432C12.1669 16.6432 11.1804 15.9296 10.1061 15.9486C8.70943 15.9676 7.41045 16.7383 6.69748 17.9657C5.23247 20.4206 6.31657 24.0552 7.73275 26.0533C8.42619 27.0428 9.25636 28.1275 10.3502 28.0894C11.3855 28.0514 11.7957 27.4329 13.0459 27.4329C14.3058 27.4329 14.6671 28.0894 15.761 28.0704C16.894 28.0514 17.6069 27.0809 18.3004 26.0913C19.0915 24.9686 19.4138 23.8744 19.4333 23.8173C19.4138 23.7983 17.2456 22.9895 17.226 20.5538C17.2065 18.5176 18.9352 17.5471 19.0133 17.49C18.0367 16.0818 16.5131 15.9296 15.9857 15.8915ZM23.8283 13.1323V27.9657H26.1919V22.8944H29.4638C32.4524 22.8944 34.5522 20.8963 34.5522 18.0038C34.5522 15.1113 32.4914 13.1323 29.5419 13.1323H23.8283ZM26.1919 15.0733H28.9168C30.9678 15.0733 32.1398 16.1389 32.1398 18.0133C32.1398 19.8877 30.9678 20.9629 28.9071 20.9629H26.1919V15.0733ZM38.8691 28.0799C40.3537 28.0799 41.7308 27.3473 42.3559 26.1865H42.4047V27.9657H44.5924V20.5823C44.5924 18.4415 42.8344 17.0618 40.129 17.0618C37.619 17.0618 35.7633 18.4605 35.6949 20.3825H37.8241C37.9999 19.4691 38.8691 18.8696 40.0607 18.8696C41.5062 18.8696 42.3168 19.5262 42.3168 20.7345V21.5528L39.3672 21.7241C36.6228 21.8858 35.1382 22.98 35.1382 24.883C35.1382 26.8049 36.6716 28.0799 38.8691 28.0799ZM39.504 26.3197C38.2441 26.3197 37.4432 25.7298 37.4432 24.8259C37.4432 23.8934 38.2148 23.3511 39.6895 23.2655L42.3168 23.1037V23.941C42.3168 25.3302 41.1057 26.3197 39.504 26.3197ZM47.5127 32C49.8176 32 50.9018 31.1437 51.8491 28.5461L56 17.2046H53.5974L50.8139 25.9677H50.765L47.9815 17.2046H45.5105L49.5149 28.0038L49.3 28.6603C48.9386 29.7736 48.3526 30.2017 47.3076 30.2017C47.122 30.2017 46.7607 30.1827 46.6142 30.1637V31.9429C46.7509 31.981 47.3369 32 47.5127 32Z" fill="black"/>
</svg>
