<svg width="121" height="16" viewBox="0 0 121 16" fill="none" xmlns="http://www.w3.org/2000/svg">
<path d="M7.60768 15.5C3.22325 15.5 0 12.4299 0 8.04121V8C0 3.7967 3.20323 0.5 7.5276 0.5C10.0101 0.5 11.7118 1.26236 13.2133 2.58104L10.931 5.42445C9.91 4.53846 8.96905 4.06456 7.54762 4.06456C5.5456 4.06456 3.964 5.79533 3.964 8V8.04121C3.964 10.3901 5.5456 12.0591 7.76784 12.0591C8.72881 12.0591 9.44954 11.853 10.0101 11.4615V9.71016H7.26733V6.78434H13.6938V13.2541C12.1923 14.5522 10.1903 15.5 7.60768 15.5Z" fill="#04C495"/>
<path d="M14.6938 15.2115V0.788462H25.9652V4.16758H18.5377V6.37225H25.2645V9.52472H18.5377V11.8118H26.0653V15.2115H14.6938Z" fill="#04C495"/>
<path d="M31.2495 15.2115V4.29121H27.0653V0.788462H39.3377V4.29121H35.1334V15.2115H31.2495Z" fill="#04C495"/>
<path d="M46.0036 15.263L40.3379 0.73695H44.6623L47.8455 9.8647L51.0487 0.73695H55.293L49.6072 15.263H46.0036Z" fill="#8C4AFF"/>
<path d="M56.293 15.2115V0.788462H60.1769V15.2115H56.293Z" fill="#8C4AFF"/>
<path d="M67.7435 15.4588C65.241 15.4588 62.9387 14.6552 61.1769 13.0687L63.3391 10.4107C64.7605 11.5646 66.2821 12.1415 67.8837 12.1415C68.9447 12.1415 69.5053 11.7912 69.5053 11.1525V11.1113C69.5053 10.4931 69.0448 10.2047 67.1229 9.71017C64.1599 9.00962 61.8376 8.16484 61.8376 5.1978V5.15659C61.8376 2.45742 63.8997 0.54121 67.2631 0.54121C69.6655 0.54121 71.5073 1.20055 73.0289 2.45742L71.0869 5.28022C69.8056 4.31181 68.4242 3.85852 67.163 3.85852C66.222 3.85852 65.7615 4.2294 65.7615 4.78571V4.82692C65.7615 5.46566 66.242 5.79533 68.204 6.22802C71.4072 6.94918 73.4093 8.0206 73.4093 10.7198V10.761C73.4093 13.7074 71.147 15.4588 67.7435 15.4588Z" fill="#8C4AFF"/>
<path d="M74.4093 15.263L80.3553 0.73695H84.099L90.0651 15.263H85.9009L84.8998 12.6669H79.4744L78.4734 15.263H74.4093ZM80.6155 9.55563H83.7587L82.1971 5.47596L80.6155 9.55563Z" fill="#8C4AFF"/>
<path d="M98.6727 15.5C94.2883 15.5 91.0651 12.4299 91.0651 8.04121V8C91.0651 3.7967 94.2683 0.5 98.5927 0.5C101.075 0.5 102.777 1.26236 104.278 2.58104L101.996 5.42445C100.975 4.53846 100.034 4.06456 98.6127 4.06456C96.6106 4.06456 95.0291 5.79533 95.0291 8V8.04121C95.0291 10.3901 96.6106 12.0591 98.8329 12.0591C99.7939 12.0591 100.515 11.853 101.075 11.4615V9.71016H98.3324V6.78434H104.759V13.2541C103.257 14.5522 101.255 15.5 98.6727 15.5Z" fill="#8C4AFF"/>
<path d="M113.286 15.5C108.962 15.5 105.759 12.1621 105.759 8.04121V8C105.759 3.85852 109.002 0.5 113.327 0.5C117.651 0.5 120.854 3.83791 120.854 7.95879V8C120.854 12.1415 117.611 15.5 113.286 15.5ZM113.327 11.8942C115.449 11.8942 116.87 10.1223 116.87 8.04121V8C116.87 5.89835 115.429 4.10577 113.286 4.10577C111.144 4.10577 109.723 5.87775 109.723 7.95879V8C109.723 10.0604 111.184 11.8942 113.327 11.8942Z" fill="#8C4AFF"/>
</svg>
