<svg width="300" height="46" viewBox="0 0 300 46" fill="none" xmlns="http://www.w3.org/2000/svg">
<path d="M0 23C0 10.2975 10.2975 0 23 0H277C289.703 0 300 10.2975 300 23C300 35.7025 289.703 46 277 46H23C10.2974 46 0 35.7025 0 23Z" fill="white"/>
<path d="M30.2244 30V16H36.8444C39.0044 16 40.4644 16.56 41.4044 17.5C42.2244 18.32 42.6444 19.42 42.6444 20.76V20.8C42.6444 22.96 41.5244 24.38 39.7644 25.12L43.1044 30H38.6444L35.8244 25.76H34.1044V30H30.2244ZM34.1044 22.72H36.6844C37.9844 22.72 38.7644 22.08 38.7644 21.06V21.02C38.7644 19.9 37.9444 19.34 36.6644 19.34H34.1044V22.72ZM44.5994 30V16H55.8594V19.28H48.4394V21.42H55.1594V24.48H48.4394V26.7H55.9594V30H44.5994ZM56.8588 30L62.7988 15.9H66.5388L72.4988 30H68.3388L67.3388 27.48H61.9188L60.9188 30H56.8588ZM63.0588 24.46H66.1988L64.6388 20.5L63.0588 24.46ZM73.8572 30V16H79.2772C84.2572 16 87.1572 18.86 87.1572 22.92V22.96C87.1572 27.02 84.2172 30 79.1972 30H73.8572ZM79.3172 19.42H77.7372V26.56H79.3172C81.6572 26.56 83.1972 25.28 83.1972 23.02V22.98C83.1972 20.72 81.6572 19.42 79.3172 19.42ZM95.1658 30V16H99.2658L102.606 21.42L105.946 16H110.046V30H106.186V21.96L102.606 27.44H102.526L98.9658 21.98V30H95.1658ZM119.589 30.28C115.269 30.28 112.069 27.04 112.069 23.04V23C112.069 18.98 115.309 15.72 119.629 15.72C123.949 15.72 127.149 18.96 127.149 22.96V23C127.149 27.02 123.909 30.28 119.589 30.28ZM119.629 26.78C121.749 26.78 123.169 25.06 123.169 23.04V23C123.169 20.96 121.729 19.22 119.589 19.22C117.449 19.22 116.029 20.94 116.029 22.96V23C116.029 25 117.489 26.78 119.629 26.78ZM129.15 30V16H135.77C137.93 16 139.39 16.56 140.33 17.5C141.15 18.32 141.57 19.42 141.57 20.76V20.8C141.57 22.96 140.45 24.38 138.69 25.12L142.03 30H137.57L134.75 25.76H133.03V30H129.15ZM133.03 22.72H135.61C136.91 22.72 137.69 22.08 137.69 21.06V21.02C137.69 19.9 136.87 19.34 135.59 19.34H133.03V22.72ZM143.525 30V16H154.785V19.28H147.365V21.42H154.085V24.48H147.365V26.7H154.885V30H143.525ZM161.781 30L167.721 15.9H171.461L177.421 30H173.261L172.261 27.48H166.841L165.841 30H161.781ZM167.981 24.46H171.121L169.561 20.5L167.981 24.46ZM178.779 30V16H185.959C187.719 16 188.959 16.44 189.779 17.24C190.339 17.82 190.679 18.56 190.679 19.52V19.56C190.679 21.18 189.779 22.14 188.519 22.68C190.219 23.24 191.299 24.2 191.299 26.1V26.14C191.299 28.56 189.359 30 185.999 30H178.779ZM186.859 20.36V20.32C186.859 19.52 186.279 19.12 185.099 19.12H182.559V21.58H184.999C186.199 21.58 186.859 21.18 186.859 20.36ZM187.419 25.6V25.56C187.419 24.78 186.819 24.3 185.519 24.3H182.559V26.88H185.559C186.759 26.88 187.419 26.42 187.419 25.6ZM200.136 30.28C195.816 30.28 192.616 27.04 192.616 23.04V23C192.616 18.98 195.856 15.72 200.176 15.72C204.496 15.72 207.696 18.96 207.696 22.96V23C207.696 27.02 204.456 30.28 200.136 30.28ZM200.176 26.78C202.296 26.78 203.716 25.06 203.716 23.04V23C203.716 20.96 202.276 19.22 200.136 19.22C197.996 19.22 196.576 20.94 196.576 22.96V23C196.576 25 198.036 26.78 200.176 26.78ZM215.997 30.26C212.037 30.26 209.537 28.26 209.537 23.86V16H213.457V23.78C213.457 25.8 214.457 26.76 216.037 26.76C217.637 26.76 218.637 25.86 218.637 23.88V16H222.557V23.76C222.557 28.26 219.977 30.26 215.997 30.26ZM228.273 30V19.4H224.093V16H236.353V19.4H232.153V30H228.273ZM250.353 30.26C246.393 30.26 243.893 28.26 243.893 23.86V16H247.812V23.78C247.812 25.8 248.813 26.76 250.393 26.76C251.993 26.76 252.993 25.86 252.993 23.88V16H256.913V23.76C256.913 28.26 254.333 30.26 250.353 30.26ZM264.709 30.24C262.209 30.24 259.909 29.46 258.149 27.92L260.309 25.34C261.729 26.46 263.249 27.02 264.849 27.02C265.909 27.02 266.469 26.68 266.469 26.06V26.02C266.469 25.42 266.009 25.14 264.089 24.66C261.129 23.98 258.809 23.16 258.809 20.28V20.24C258.809 17.62 260.869 15.76 264.229 15.76C266.629 15.76 268.469 16.4 269.989 17.62L268.049 20.36C266.769 19.42 265.389 18.98 264.129 18.98C263.189 18.98 262.729 19.34 262.729 19.88V19.92C262.729 20.54 263.209 20.86 265.169 21.28C268.369 21.98 270.369 23.02 270.369 25.64V25.68C270.369 28.54 268.109 30.24 264.709 30.24Z" fill="#8C4AFF"/>
</svg>
