<svg width="42" height="41" viewBox="0 0 42 41" fill="none" xmlns="http://www.w3.org/2000/svg">
<path d="M0 0H32C37.5228 0 42 4.47715 42 10V31C42 36.5228 37.5228 41 32 41H0V0Z" fill="#8C4AFF"/>
<path d="M27 29.5H15V27.5H27V29.5Z" fill="white"/>
<path fill-rule="evenodd" clip-rule="evenodd" d="M21 11.5C24.866 11.5 28 14.634 28 18.5C28 22.366 24.866 25.5 21 25.5C17.134 25.5 14 22.366 14 18.5C14 14.634 17.134 11.5 21 11.5ZM23.7451 13.9404C22.1003 12.8783 23.1967 13.9398 22.1006 15.002C21.004 16.0641 19.9068 13.9401 19.3584 14.4707C18.8101 15.0018 20 17.4999 17.5 16C15.9954 15.0973 15.8172 19.0741 16 19.7822C16.914 19.7822 18.8105 19.0388 18.8105 20.3135C18.8106 21.9067 19.9069 23.4999 21.5518 23.5C23.1968 23.5 21.5518 21.3756 21.5518 19.7822C21.5518 18.1889 25.3901 20.3129 25.9385 18.1885C26.4863 16.0647 23.1969 18.1887 22.6484 16.5957C22.1001 15.0024 25.3898 15.0026 23.7451 13.9404Z" fill="white"/>
<path fill-rule="evenodd" clip-rule="evenodd" d="M32 34.5H10V6.5H32V34.5ZM12 32.5H30V8.5H12V32.5Z" fill="white"/>
</svg>
