<svg width="94" height="12" viewBox="0 0 94 12" fill="none" xmlns="http://www.w3.org/2000/svg">
<path d="M6.4 11.724C3.2 11.724 0.624 9.276 0.624 5.932V5.9C0.624 2.636 3.12 0.0759993 6.512 0.0759993C8.784 0.0759993 10.288 1.036 11.264 2.396L8.928 4.204C8.288 3.42 7.568 2.892 6.48 2.892C4.912 2.892 3.808 4.236 3.808 5.868V5.9C3.808 7.58 4.912 8.892 6.48 8.892C7.648 8.892 8.32 8.348 9.008 7.532L11.344 9.196C10.272 10.652 8.864 11.724 6.4 11.724ZM12.6951 11.5V0.299999H15.7991V4.492H19.7831V0.299999H22.8871V11.5H19.7831V7.244H15.7991V11.5H12.6951ZM23.987 11.5L28.739 0.219999H31.731L36.499 11.5H33.171L32.371 9.484H28.035L27.235 11.5H23.987ZM28.947 7.068H31.459L30.211 3.9L28.947 7.068ZM38.8843 11.5V3.02H35.5403V0.299999H45.3483V3.02H41.9883V11.5H38.8843ZM51.5076 11.5V0.299999H54.6116V4.492H58.5956V0.299999H61.6996V11.5H58.5956V7.244H54.6116V11.5H51.5076ZM63.6795 11.5V0.299999H72.6875V2.924H66.7515V4.636H72.1275V7.084H66.7515V8.86H72.7675V11.5H63.6795ZM74.367 11.5V0.299999H77.471V8.78H82.895V11.5H74.367ZM84.242 11.5V0.299999H89.058C91.874 0.299999 93.698 1.74 93.698 4.22V4.252C93.698 6.908 91.666 8.3 88.898 8.3H87.346V11.5H84.242ZM87.346 5.868H88.834C89.922 5.868 90.61 5.292 90.61 4.396V4.364C90.61 3.404 89.922 2.908 88.818 2.908H87.346V5.868Z" fill="#8C4AFF"/>
</svg>
