<svg width="215" height="15" viewBox="0 0 215 15" fill="none" xmlns="http://www.w3.org/2000/svg">
<path d="M5.392 11.692C3.392 11.692 1.552 11.068 0.144 9.836L1.872 7.772C3.008 8.668 4.224 9.116 5.504 9.116C6.352 9.116 6.8 8.844 6.8 8.348V8.316C6.8 7.836 6.432 7.612 4.896 7.228C2.528 6.684 0.672 6.028 0.672 3.724V3.692C0.672 1.596 2.32 0.108 5.008 0.108C6.928 0.108 8.4 0.62 9.616 1.596L8.064 3.788C7.04 3.036 5.936 2.684 4.928 2.684C4.176 2.684 3.808 2.972 3.808 3.404V3.436C3.808 3.932 4.192 4.188 5.76 4.524C8.32 5.084 9.92 5.916 9.92 8.012V8.044C9.92 10.332 8.112 11.692 5.392 11.692ZM16.4695 11.708C13.3015 11.708 11.3015 10.108 11.3015 6.588V0.299999H14.4375V6.524C14.4375 8.14 15.2375 8.908 16.5015 8.908C17.7815 8.908 18.5815 8.188 18.5815 6.604V0.299999H21.7175V6.508C21.7175 10.108 19.6535 11.708 16.4695 11.708ZM23.5545 11.5V0.299999H28.3705C31.1865 0.299999 33.0105 1.74 33.0105 4.22V4.252C33.0105 6.908 30.9785 8.3 28.2105 8.3H26.6585V11.5H23.5545ZM26.6585 5.868H28.1465C29.2345 5.868 29.9225 5.292 29.9225 4.396V4.364C29.9225 3.404 29.2345 2.908 28.1305 2.908H26.6585V5.868ZM34.3201 11.5V0.299999H39.1361C41.9521 0.299999 43.7761 1.74 43.7761 4.22V4.252C43.7761 6.908 41.7441 8.3 38.9761 8.3H37.4241V11.5H34.3201ZM37.4241 5.868H38.9121C40.0001 5.868 40.6881 5.292 40.6881 4.396V4.364C40.6881 3.404 40.0001 2.908 38.8961 2.908H37.4241V5.868ZM50.7338 11.724C47.2778 11.724 44.7178 9.132 44.7178 5.932V5.9C44.7178 2.684 47.3098 0.0759993 50.7658 0.0759993C54.2218 0.0759993 56.7818 2.668 56.7818 5.868V5.9C56.7818 9.116 54.1898 11.724 50.7338 11.724ZM50.7658 8.924C52.4618 8.924 53.5978 7.548 53.5978 5.932V5.9C53.5978 4.268 52.4458 2.876 50.7338 2.876C49.0218 2.876 47.8858 4.252 47.8858 5.868V5.9C47.8858 7.5 49.0538 8.924 50.7658 8.924ZM58.3826 11.5V0.299999H63.6786C65.4066 0.299999 66.5746 0.747999 67.3266 1.5C67.9826 2.156 68.3186 3.036 68.3186 4.108V4.14C68.3186 5.868 67.4226 7.004 66.0146 7.596L68.6866 11.5H65.1186L62.8626 8.108H61.4866V11.5H58.3826ZM61.4866 5.676H63.5506C64.5906 5.676 65.2146 5.164 65.2146 4.348V4.316C65.2146 3.42 64.5586 2.972 63.5346 2.972H61.4866V5.676ZM72.6186 11.5V3.02H69.2746V0.299999H79.0826V3.02H75.7226V11.5H72.6186ZM87.3251 14.092C83.1811 14.092 80.1891 10.988 80.1891 7.1C80.1891 3.244 83.2291 0.0759993 87.2771 0.0759993C91.2291 0.0759993 94.1731 3.02 94.1731 6.3C94.1731 9.196 92.5091 10.588 90.7651 10.588C89.4211 10.588 88.6691 10.028 88.2851 9.372C87.6931 10.06 86.9571 10.54 85.9331 10.54C84.2691 10.54 83.0051 9.308 83.0051 7.34C83.0051 5.052 84.6531 3.18 86.5571 3.18C87.5971 3.18 88.2691 3.708 88.7011 4.364L88.8931 3.388L91.3571 3.772L90.6211 7.9C90.5731 8.14 90.5571 8.364 90.5571 8.604C90.5571 9.132 90.9411 9.548 91.5971 9.548C92.6691 9.548 93.5011 8.428 93.5011 6.3C93.5011 3.34 90.9091 0.716 87.2771 0.716C83.5171 0.716 80.8611 3.58 80.8611 7.1C80.8611 10.684 83.5011 13.452 87.3251 13.452C88.9251 13.452 90.0291 13.084 91.2451 12.38L91.5651 12.892C90.3331 13.644 88.9891 14.092 87.3251 14.092ZM86.7331 8.396C87.1171 8.396 87.4691 8.236 87.7251 7.98C88.0611 7.644 88.2851 7.132 88.2851 6.556C88.2851 5.788 87.7731 5.324 87.1171 5.324C86.7331 5.324 86.3971 5.468 86.1091 5.756C85.7731 6.092 85.5651 6.588 85.5651 7.148C85.5651 7.964 86.0451 8.396 86.7331 8.396ZM99.5306 11.58L95.0026 0.299999H98.4586L101.003 7.388L103.563 0.299999H106.955L102.411 11.58H99.5306ZM108.119 11.5V0.299999H111.223V11.5H108.119ZM117.673 11.692C115.673 11.692 113.833 11.068 112.425 9.836L114.153 7.772C115.289 8.668 116.505 9.116 117.785 9.116C118.633 9.116 119.081 8.844 119.081 8.348V8.316C119.081 7.836 118.713 7.612 117.177 7.228C114.809 6.684 112.953 6.028 112.953 3.724V3.692C112.953 1.596 114.601 0.108 117.289 0.108C119.209 0.108 120.681 0.62 121.897 1.596L120.345 3.788C119.321 3.036 118.217 2.684 117.209 2.684C116.457 2.684 116.089 2.972 116.089 3.404V3.436C116.089 3.932 116.473 4.188 118.041 4.524C120.601 5.084 122.201 5.916 122.201 8.012V8.044C122.201 10.332 120.393 11.692 117.673 11.692ZM122.596 11.5L127.348 0.219999H130.34L135.108 11.5H131.78L130.98 9.484H126.644L125.844 11.5H122.596ZM127.556 7.068H130.068L128.82 3.9L127.556 7.068ZM136.195 11.5V0.299999H140.531C144.515 0.299999 146.835 2.588 146.835 5.836V5.868C146.835 9.116 144.483 11.5 140.467 11.5H136.195ZM140.563 3.036H139.299V8.748H140.563C142.435 8.748 143.667 7.724 143.667 5.916V5.884C143.667 4.076 142.435 3.036 140.563 3.036ZM154.093 11.724C150.637 11.724 148.077 9.132 148.077 5.932V5.9C148.077 2.684 150.669 0.0759993 154.125 0.0759993C157.581 0.0759993 160.141 2.668 160.141 5.868V5.9C160.141 9.116 157.549 11.724 154.093 11.724ZM154.125 8.924C155.821 8.924 156.957 7.548 156.957 5.932V5.9C156.957 4.268 155.805 2.876 154.093 2.876C152.381 2.876 151.245 4.252 151.245 5.868V5.9C151.245 7.5 152.413 8.924 154.125 8.924ZM167.15 11.724C163.95 11.724 161.374 9.276 161.374 5.932V5.9C161.374 2.636 163.87 0.0759993 167.262 0.0759993C169.534 0.0759993 171.038 1.036 172.014 2.396L169.678 4.204C169.038 3.42 168.318 2.892 167.23 2.892C165.662 2.892 164.558 4.236 164.558 5.868V5.9C164.558 7.58 165.662 8.892 167.23 8.892C168.398 8.892 169.07 8.348 169.758 7.532L172.094 9.196C171.022 10.652 169.614 11.724 167.15 11.724ZM173.141 11.5V8.38H176.293V11.5H173.141ZM182.9 11.724C179.7 11.724 177.124 9.276 177.124 5.932V5.9C177.124 2.636 179.62 0.0759993 183.012 0.0759993C185.284 0.0759993 186.788 1.036 187.764 2.396L185.428 4.204C184.788 3.42 184.068 2.892 182.98 2.892C181.412 2.892 180.308 4.236 180.308 5.868V5.9C180.308 7.58 181.412 8.892 182.98 8.892C184.148 8.892 184.82 8.348 185.508 7.532L187.844 9.196C186.772 10.652 185.364 11.724 182.9 11.724ZM194.531 11.724C191.075 11.724 188.515 9.132 188.515 5.932V5.9C188.515 2.684 191.107 0.0759993 194.563 0.0759993C198.019 0.0759993 200.579 2.668 200.579 5.868V5.9C200.579 9.116 197.987 11.724 194.531 11.724ZM194.563 8.924C196.259 8.924 197.395 7.548 197.395 5.932V5.9C197.395 4.268 196.243 2.876 194.531 2.876C192.819 2.876 191.683 4.252 191.683 5.868V5.9C191.683 7.5 192.851 8.924 194.563 8.924ZM202.18 11.5V0.299999H205.46L208.132 4.636L210.804 0.299999H214.084V11.5H210.996V5.068L208.132 9.452H208.068L205.22 5.084V11.5H202.18Z" fill="#8C4AFF"/>
</svg>
