<svg width="30" height="30" viewBox="0 0 30 30" fill="none" xmlns="http://www.w3.org/2000/svg">
<g clip-path="url(#clip0_367_200)">
<path d="M0 0H30V10H0V0Z" fill="#FF9933"/>
<path d="M0 10H30V20H0V10Z" fill="white"/>
<path d="M0 20H30V30H0V20Z" fill="#128807"/>
<path d="M15.0005 18.9999C16.6574 18.9999 18.0005 17.2091 18.0005 14.9999C18.0005 12.7908 16.6574 10.9999 15.0005 10.9999C13.3437 10.9999 12.0005 12.7908 12.0005 14.9999C12.0005 17.2091 13.3437 18.9999 15.0005 18.9999Z" fill="#000088"/>
<path d="M15.0005 18.4999C16.4503 18.4999 17.6255 16.9329 17.6255 14.9999C17.6255 13.0669 16.4503 11.4999 15.0005 11.4999C13.5508 11.4999 12.3755 13.0669 12.3755 14.9999C12.3755 16.9329 13.5508 18.4999 15.0005 18.4999Z" fill="white"/>
<path d="M15.0005 15.6999C15.2905 15.6999 15.5255 15.3865 15.5255 14.9999C15.5255 14.6133 15.2905 14.2999 15.0005 14.2999C14.7106 14.2999 14.4755 14.6133 14.4755 14.9999C14.4755 15.3865 14.7106 15.6999 15.0005 15.6999Z" fill="#000088"/>
<path d="M17.5854 15.6365C17.6593 15.6495 17.7271 15.5801 17.7369 15.4816C17.7466 15.383 17.6946 15.2926 17.6206 15.2796C17.5467 15.2666 17.4789 15.336 17.4692 15.4346C17.4594 15.5332 17.5115 15.6236 17.5854 15.6365Z" fill="#000088"/>
<path d="M15.0005 18.4999L15.0905 16.3999L15.0005 15.3999L14.9105 16.3999L15.0005 18.4999Z" fill="#000088"/>
<path d="M17.3796 16.4976C17.4517 16.5408 17.5307 16.5054 17.556 16.4187C17.5813 16.3319 17.5433 16.2266 17.4712 16.1835C17.399 16.1404 17.3201 16.1757 17.2948 16.2625C17.2695 16.3492 17.3075 16.4545 17.3796 16.4976Z" fill="#000088"/>
<path d="M14.3389 18.3722L14.8272 16.3948L14.9051 15.3948L14.6177 16.3157L14.3389 18.3722Z" fill="#000088"/>
<path d="M17.0068 17.2654C17.0695 17.3309 17.1542 17.3242 17.1961 17.2504C17.2379 17.1766 17.221 17.0636 17.1583 16.998C17.0956 16.9325 17.0108 16.9392 16.969 17.013C16.9272 17.0868 16.9441 17.1998 17.0068 17.2654Z" fill="#000088"/>
<path d="M13.6997 18.0212L14.561 16.2857L14.8389 15.3562L14.3818 16.146L13.6997 18.0212Z" fill="#000088"/>
<path d="M16.4963 17.879C16.5448 17.9624 16.6295 17.9845 16.6856 17.9285C16.7416 17.8725 16.7478 17.7595 16.6993 17.6761C16.6508 17.5927 16.5661 17.5706 16.51 17.6266C16.4539 17.6826 16.4478 17.7956 16.4963 17.879Z" fill="#000088"/>
<path d="M13.1516 17.4643L14.3264 16.0889L14.7811 15.2932L14.1845 15.8983L13.1516 17.4643Z" fill="#000088"/>
<path d="M15.8723 18.3128C15.8969 18.3992 15.9759 18.4341 16.0487 18.3906C16.1215 18.3472 16.1606 18.2419 16.1361 18.1555C16.1115 18.069 16.0325 18.0341 15.9597 18.0776C15.8868 18.121 15.8477 18.2263 15.8723 18.3128Z" fill="#000088"/>
<path d="M12.7207 16.7639L14.132 15.7849L14.7472 15.186L14.055 15.605L12.7207 16.7639Z" fill="#000088"/>
<path d="M15.2008 18.5032C15.2064 18.5965 15.2742 18.6575 15.3523 18.6393C15.4304 18.6211 15.4891 18.5307 15.4836 18.4373C15.478 18.344 15.4102 18.2831 15.3321 18.3012C15.254 18.3194 15.1952 18.4099 15.2008 18.5032Z" fill="#000088"/>
<path d="M12.4596 15.9247L14.0061 15.4526L14.7161 15.0846L13.9703 15.2585L12.4596 15.9247Z" fill="#000088"/>
<path d="M14.5289 18.459C14.5159 18.5645 14.5628 18.6549 14.6335 18.661C14.7042 18.667 14.772 18.5864 14.7849 18.4808C14.7979 18.3753 14.7511 18.2849 14.6803 18.2789C14.6096 18.2729 14.5418 18.3535 14.5289 18.459Z" fill="#000088"/>
<path d="M12.38 15.0586L13.9444 15.0405L14.696 14.9413L13.9534 14.9178L12.38 15.0586Z" fill="#000088"/>
<path d="M13.8723 18.1704C13.8427 18.2656 13.8736 18.3709 13.9414 18.4055C14.0092 18.4402 14.0882 18.3911 14.1178 18.2959C14.1474 18.2006 14.1165 18.0954 14.0487 18.0607C13.9809 18.026 13.9019 18.0751 13.8723 18.1704Z" fill="#000088"/>
<path d="M12.4667 14.112L13.9606 14.7651L14.709 14.8785L14.0107 14.4974L12.4667 14.112Z" fill="#000088"/>
<path d="M13.288 17.6571C13.2463 17.7308 13.2633 17.8438 13.3261 17.9095C13.3888 17.9751 13.4736 17.9686 13.5154 17.8948C13.5571 17.8211 13.5401 17.7081 13.4773 17.6425C13.4145 17.5768 13.3298 17.5834 13.288 17.6571Z" fill="#000088"/>
<path d="M12.7207 13.2359L14.055 14.3948L14.7472 14.8139L14.132 14.215L12.7207 13.2359Z" fill="#000088"/>
<path d="M12.8287 16.9774C12.7731 17.0327 12.7677 17.1457 12.8166 17.2298C12.8655 17.3138 12.9503 17.3372 13.0059 17.2819C13.0615 17.2266 13.0669 17.1136 13.018 17.0295C12.9691 16.9454 12.8843 16.9221 12.8287 16.9774Z" fill="#000088"/>
<path d="M13.1369 12.5143L14.2046 14.0879L14.7959 14.7279L14.3169 13.9398L13.1369 12.5143Z" fill="#000088"/>
<path d="M12.5187 16.1644C12.4523 16.1983 12.4237 16.3036 12.4547 16.3996C12.4858 16.4955 12.5647 16.5459 12.6311 16.512C12.6975 16.478 12.7261 16.3727 12.6951 16.2768C12.664 16.1808 12.585 16.1305 12.5187 16.1644Z" fill="#000088"/>
<path d="M13.6813 11.962L14.4066 13.8431L14.8572 14.6604L14.5491 13.7368L13.6813 11.962Z" fill="#000088"/>
<path d="M12.3759 15.2691C12.3043 15.2777 12.2561 15.3681 12.2682 15.4711C12.2803 15.574 12.3481 15.6505 12.4197 15.6419C12.4912 15.6333 12.5394 15.5429 12.5273 15.4399C12.5153 15.337 12.4474 15.2605 12.3759 15.2691Z" fill="#000088"/>
<path d="M14.3122 11.6135L14.6539 13.675L14.9318 14.6193L14.8099 13.6244L14.3122 11.6135Z" fill="#000088"/>
<path d="M12.4092 14.3743C12.3317 14.3553 12.2639 14.4148 12.2577 14.5073C12.2516 14.5998 12.3094 14.6902 12.3868 14.7093C12.4643 14.7283 12.5321 14.6688 12.5383 14.5763C12.5445 14.4838 12.4867 14.3934 12.4092 14.3743Z" fill="#000088"/>
<path d="M14.9646 11.5086L14.9592 13.5883L15.0364 14.5913L15.0673 13.6055L14.9646 11.5086Z" fill="#000088"/>
<path d="M12.6217 13.5023C12.5497 13.4591 12.4707 13.4944 12.4453 13.5811C12.4199 13.6679 12.4576 13.7732 12.5296 13.8163C12.6016 13.8595 12.6805 13.8242 12.706 13.7375C12.7314 13.6507 12.6937 13.5454 12.6217 13.5023Z" fill="#000088"/>
<path d="M15.663 11.6277L15.1745 13.605L15.095 14.605L15.3821 13.6842L15.663 11.6277Z" fill="#000088"/>
<path d="M12.9944 12.735C12.9319 12.6692 12.8471 12.6754 12.8052 12.7489C12.7632 12.8224 12.78 12.9354 12.8425 13.0013C12.9051 13.0672 12.9899 13.061 13.0318 12.9874C13.0738 12.9139 13.057 12.8009 12.9944 12.735Z" fill="#000088"/>
<path d="M16.3018 11.9793L15.4403 13.7133L15.1617 14.6431L15.6187 13.8543L16.3018 11.9793Z" fill="#000088"/>
<path d="M13.5043 12.1224C13.4556 12.0382 13.3709 12.0147 13.3151 12.0698C13.2592 12.125 13.2534 12.238 13.3022 12.3222C13.3509 12.4064 13.4356 12.43 13.4914 12.3748C13.5473 12.3197 13.553 12.2067 13.5043 12.1224Z" fill="#000088"/>
<path d="M16.8488 12.5376L15.6743 13.9081L15.2205 14.7045L15.8173 14.103L16.8488 12.5376Z" fill="#000088"/>
<path d="M14.1287 11.6871C14.1042 11.6007 14.0252 11.5658 13.9524 11.6093C13.8795 11.6527 13.8404 11.758 13.8649 11.8444C13.8895 11.9309 13.9685 11.9657 14.0413 11.9223C14.1142 11.8788 14.1533 11.7735 14.1287 11.6871Z" fill="#000088"/>
<path d="M17.2803 13.2359L15.869 14.215L15.2538 14.8139L15.946 14.3948L17.2803 13.2359Z" fill="#000088"/>
<path d="M14.8003 11.4967C14.7947 11.4033 14.7269 11.3424 14.6488 11.3606C14.5707 11.3787 14.5119 11.4691 14.5174 11.5625C14.523 11.6559 14.5908 11.7168 14.6689 11.6987C14.747 11.6805 14.8058 11.5901 14.8003 11.4967Z" fill="#000088"/>
<path d="M17.5415 14.0753L15.9949 14.5472L15.2849 14.9152L16.0307 14.7414L17.5415 14.0753Z" fill="#000088"/>
<path d="M15.4711 11.5398C15.4846 11.4337 15.4387 11.3433 15.3686 11.3378C15.2985 11.3324 15.2307 11.414 15.2172 11.5201C15.2036 11.6262 15.2495 11.7166 15.3196 11.7221C15.3898 11.7275 15.4576 11.6459 15.4711 11.5398Z" fill="#000088"/>
<path d="M17.6202 14.939L16.0578 14.9625L15.3059 15.0609L16.0471 15.0806L17.6202 14.939Z" fill="#000088"/>
<path d="M16.1275 11.8279C16.1578 11.7317 16.128 11.6264 16.0609 11.5927C15.9938 11.5589 15.9148 11.6095 15.8845 11.7057C15.8542 11.8018 15.884 11.9071 15.9511 11.9408C16.0182 11.9746 16.0972 11.924 16.1275 11.8279Z" fill="#000088"/>
<path d="M17.5332 15.8822L16.042 15.2312L15.2932 15.127L15.9896 15.5101L17.5332 15.8822Z" fill="#000088"/>
<path d="M16.7034 12.3285C16.7505 12.2469 16.742 12.1339 16.6845 12.0761C16.627 12.0184 16.5423 12.0377 16.4952 12.1193C16.4482 12.2009 16.4567 12.3139 16.5142 12.3717C16.5717 12.4295 16.6564 12.4101 16.7034 12.3285Z" fill="#000088"/>
<path d="M17.2707 16.7413L15.9591 15.5904L15.2635 15.2086L15.8628 15.8155L17.2707 16.7413Z" fill="#000088"/>
<path d="M17.1628 13.0081C17.2237 12.9448 17.2376 12.8318 17.1939 12.7557C17.1502 12.6796 17.0655 12.6691 17.0046 12.7324C16.9438 12.7957 16.9299 12.9087 16.9736 12.9848C17.0172 13.0609 17.102 13.0713 17.1628 13.0081Z" fill="#000088"/>
<path d="M16.8528 17.4685L15.8118 15.9009L15.2165 15.2891L15.6769 16.0833L16.8528 17.4685Z" fill="#000088"/>
<path d="M17.4748 13.8233C17.5454 13.7826 17.5807 13.6773 17.5539 13.5881C17.527 13.4989 17.448 13.4595 17.3775 13.5002C17.3069 13.5408 17.2716 13.6461 17.2984 13.7353C17.3253 13.8246 17.4043 13.8639 17.4748 13.8233Z" fill="#000088"/>
<path d="M16.3083 18.0263L15.6099 16.1493L15.1552 15.3511L15.4445 16.2788L16.3083 18.0263Z" fill="#000088"/>
<path d="M17.6179 14.7181C17.6935 14.7026 17.7482 14.6121 17.7401 14.5162C17.7321 14.4202 17.6643 14.355 17.5887 14.3706C17.5131 14.3862 17.4583 14.4766 17.4664 14.5726C17.4745 14.6685 17.5423 14.7337 17.6179 14.7181Z" fill="#000088"/>
<path d="M15.6728 18.377L15.3689 16.3188L15.0853 15.39L15.1807 16.3883L15.6728 18.377Z" fill="#000088"/>
</g>
<defs>
<clipPath id="clip0_367_200">
<rect width="30" height="30" rx="15" fill="white"/>
</clipPath>
</defs>
</svg>
