<svg width="36" height="27" viewBox="0 0 36 27" fill="none" xmlns="http://www.w3.org/2000/svg">
<g clip-path="url(#clip0_907_12594)">
<mask id="mask0_907_12594" style="mask-type:luminance" maskUnits="userSpaceOnUse" x="-1" y="0" width="38" height="28">
<path d="M-0.0136719 0H36.0788V27.072H-0.0136719V0Z" fill="white"/>
</mask>
<g mask="url(#mask0_907_12594)">
<path fill-rule="evenodd" clip-rule="evenodd" d="M37.3691 27.072H-1.30371V0H37.3691V27.072Z" fill="white"/>
<path fill-rule="evenodd" clip-rule="evenodd" d="M37.3691 6.09031H-1.30371V2.53711H37.3691V6.09031ZM37.3691 24.623H-1.30371V21.0698H37.3691V24.623ZM11.8304 10.0824L17.652 20.2132L23.6004 10.13L11.8304 10.0824Z" fill="#8C4AFF"/>
<path fill-rule="evenodd" clip-rule="evenodd" d="M16.5576 16.8027L17.6627 18.6798L18.7942 16.8133L16.5576 16.8027Z" fill="white"/>
<path fill-rule="evenodd" clip-rule="evenodd" d="M11.8086 16.9512L17.6354 6.82031L23.5786 16.9089L11.8086 16.9512Z" fill="#8C4AFF"/>
<path fill-rule="evenodd" clip-rule="evenodd" d="M16.5571 10.131L17.6621 8.25391L18.7937 10.1257L16.5571 10.131ZM14.2411 14.3345L13.0938 16.238L15.2616 16.2327L14.2411 14.3292V14.3345ZM13.1149 10.8183L15.2933 10.8342L14.2464 12.7536L13.1149 10.8183ZM21.1096 14.361L22.2147 16.238L20.0098 16.2116L21.1096 14.361ZM22.1935 10.8183L20.0151 10.8342L21.062 12.7536L22.1935 10.8183ZM16.1499 10.8183L14.6483 13.5361L16.1711 16.1957L18.9629 16.2592L20.6549 13.5361L19.0898 10.7866L16.1499 10.8183Z" fill="white"/>
</g>
</g>
<defs>
<clipPath id="clip0_907_12594">
<rect width="36" height="27" rx="5" fill="white"/>
</clipPath>
</defs>
</svg>
