<svg width="63" height="44" viewBox="0 0 63 44" fill="none" xmlns="http://www.w3.org/2000/svg">
<rect x="1" y="1" width="61" height="42" rx="9.5" fill="white" stroke="#E0E0E0"/>
<path d="M18.2329 37.764V35.6735C18.2329 34.8738 17.7425 34.3501 16.9006 34.3501C16.4797 34.3501 16.022 34.4882 15.7073 34.9428C15.4622 34.5612 15.1107 34.3501 14.5835 34.3501C14.2321 34.3501 13.8806 34.4557 13.6027 34.8373V34.4191H12.8672V37.764H13.6027V35.917C13.6027 35.3244 13.9174 35.0443 14.4078 35.0443C14.8982 35.0443 15.1434 35.3568 15.1434 35.917V37.764H15.879V35.917C15.879 35.3244 16.2304 35.0443 16.684 35.0443C17.1744 35.0443 17.4196 35.3568 17.4196 35.917V37.764H18.2329ZM29.1441 34.4191H27.9508V33.4084H27.2152V34.4191H26.5491V35.0808H27.2152V36.6152C27.2152 37.3824 27.5299 37.833 28.3717 37.833C28.6864 37.833 29.0378 37.7275 29.283 37.5894L29.0705 36.9603C28.858 37.0983 28.6128 37.1348 28.4371 37.1348C28.0857 37.1348 27.9467 36.9237 27.9467 36.5787V35.0808H29.14V34.4191H29.1441ZM35.3884 34.3461C34.9675 34.3461 34.6855 34.5572 34.5098 34.8332V34.4151H33.7742V37.7599H34.5098V35.8764C34.5098 35.3203 34.755 35.0037 35.2127 35.0037C35.3516 35.0037 35.5274 35.0402 35.6704 35.0727L35.8829 34.3745C35.7358 34.3461 35.5274 34.3461 35.3884 34.3461ZM25.9525 34.6952C25.601 34.4516 25.1106 34.3461 24.5834 34.3461C23.7416 34.3461 23.1817 34.7642 23.1817 35.4258C23.1817 35.982 23.6027 36.2986 24.3382 36.4001L24.6897 36.4366C25.0738 36.5056 25.2863 36.6112 25.2863 36.7857C25.2863 37.0293 25.0044 37.2038 24.514 37.2038C24.0236 37.2038 23.6354 37.0293 23.3902 36.8547L23.0387 37.4108C23.4229 37.6909 23.95 37.8289 24.4772 37.8289C25.458 37.8289 26.0219 37.3743 26.0219 36.7492C26.0219 36.1565 25.5642 35.844 24.8654 35.7384L24.514 35.7019C24.1993 35.6653 23.9541 35.5963 23.9541 35.3893C23.9541 35.1458 24.1993 35.0077 24.5875 35.0077C25.0085 35.0077 25.4294 35.1823 25.6419 35.2878L25.9525 34.6952ZM45.5232 34.3461C45.1023 34.3461 44.8203 34.5572 44.6446 34.8332V34.4151H43.909V37.7599H44.6446V35.8764C44.6446 35.3203 44.8898 35.0037 45.3475 35.0037C45.4864 35.0037 45.6621 35.0402 45.8052 35.0727L46.0177 34.3826C45.8746 34.3461 45.6662 34.3461 45.5232 34.3461ZM36.124 36.0916C36.124 37.1023 36.8269 37.833 37.9139 37.833C38.4043 37.833 38.7558 37.7275 39.1072 37.4514L38.7558 36.8588C38.4738 37.0699 38.1959 37.1713 37.8772 37.1713C37.2805 37.1713 36.8596 36.7532 36.8596 36.0916C36.8596 35.4624 37.2805 35.0443 37.8772 35.0118C38.1918 35.0118 38.4738 35.1173 38.7558 35.3244L39.1072 34.7317C38.7558 34.4516 38.4043 34.3501 37.9139 34.3501C36.8269 34.3461 36.124 35.0808 36.124 36.0916ZM42.9282 34.4191H42.1926V34.8373C41.9474 34.5247 41.596 34.3501 41.1383 34.3501C40.1902 34.3501 39.4546 35.0808 39.4546 36.0916C39.4546 37.1023 40.1902 37.833 41.1383 37.833C41.6287 37.833 41.9801 37.6585 42.1926 37.3459V37.764H42.9282V34.4191ZM40.227 36.0916C40.227 35.4989 40.6111 35.0118 41.2445 35.0118C41.8412 35.0118 42.2621 35.4664 42.2621 36.0916C42.2621 36.6842 41.8412 37.1713 41.2445 37.1713C40.6152 37.1348 40.227 36.6802 40.227 36.0916ZM31.4244 34.3461C30.4436 34.3461 29.7407 35.0443 29.7407 36.0875C29.7407 37.1348 30.4436 37.8289 31.4612 37.8289C31.9516 37.8289 32.442 37.6909 32.8302 37.3743L32.4788 36.8507C32.1968 37.0617 31.8453 37.1998 31.498 37.1998C31.0403 37.1998 30.5867 36.9887 30.4804 36.4001H32.9692C32.9692 36.2945 32.9692 36.2255 32.9692 36.12C33.0018 35.0443 32.3684 34.3461 31.4244 34.3461ZM31.4244 34.9753C31.8821 34.9753 32.1968 35.2554 32.2663 35.7749H30.5131C30.5826 35.3244 30.8972 34.9753 31.4244 34.9753ZM49.6997 33.0958H48.9641V34.8373C48.7189 34.5247 48.3675 34.3501 47.9098 34.3501C46.9617 34.3501 46.2261 35.0808 46.2261 36.0916C46.2261 37.1023 46.9617 37.833 47.9098 37.833C48.4002 37.833 48.7516 37.6585 48.9641 37.3459V37.764H49.6997V33.0958ZM46.9985 36.0916C46.9985 35.4989 47.3826 35.0118 48.016 35.0118C48.6127 35.0118 49.0336 35.4664 49.0336 36.0916C49.0336 36.6842 48.6127 37.1713 48.016 37.1713C47.3826 37.1348 46.9985 36.6802 46.9985 36.0916ZM22.3726 34.4191H21.637V34.8373C21.3918 34.5247 21.0404 34.3501 20.5827 34.3501C19.6346 34.3501 18.899 35.0808 18.899 36.0916C18.899 37.1023 19.6346 37.833 20.5827 37.833C21.0731 37.833 21.4245 37.6585 21.637 37.3459V37.764H22.3726V34.4191ZM19.6387 36.0916C19.6387 35.4989 20.0228 35.0118 20.6562 35.0118C21.2529 35.0118 21.6738 35.4664 21.6738 36.0916C21.6738 36.6842 21.2529 37.1713 20.6562 37.1713C20.0228 37.1348 19.6387 36.6802 19.6387 36.0916Z" fill="black"/>
<path d="M36.7572 9.0166H25.707V28.7366H36.7572V9.0166Z" fill="#FF5A00"/>
<path d="M26.4429 18.8762C26.4429 14.8697 28.339 11.3137 31.2487 9.01619C29.1073 7.34377 26.4061 6.33301 23.4596 6.33301C16.4797 6.33301 10.832 11.9429 10.832 18.8762C10.832 25.8094 16.4797 31.4193 23.4596 31.4193C26.4061 31.4193 29.1073 30.4086 31.2487 28.7362C28.3349 26.4711 26.4429 22.8827 26.4429 18.8762Z" fill="#EB001B"/>
<path d="M51.6667 18.8762C51.6667 25.8094 46.019 31.4193 39.0391 31.4193C36.0926 31.4193 33.3914 30.4086 31.25 28.7362C34.1964 26.4345 36.0558 22.8827 36.0558 18.8762C36.0558 14.8697 34.1597 11.3137 31.25 9.01619C33.3873 7.34377 36.0885 6.33301 39.035 6.33301C46.019 6.33301 51.6667 11.9795 51.6667 18.8762Z" fill="#F79E1B"/>
</svg>
