<svg width="150" height="12" viewBox="0 0 150 12" fill="none" xmlns="http://www.w3.org/2000/svg">
<path d="M3.728 9.996V7.212H0.912V4.524H3.728V1.74H6.512V4.524H9.328V7.212H6.512V9.996H3.728ZM14.9384 9.148C16.5704 9.148 16.9864 7.708 17.0664 6.812C16.3784 7.452 15.5784 7.724 14.6824 7.724C12.5064 7.724 10.9224 6.364 10.9224 4.172V4.14C10.9224 1.66 12.8264 0.0759993 15.3864 0.0759993C17.0024 0.0759993 17.9784 0.523999 18.8264 1.372C19.6424 2.188 20.1704 3.468 20.1704 5.532V5.564C20.1704 9.212 18.3464 11.724 15.0024 11.724C13.3224 11.724 12.1224 11.212 11.0824 10.396L12.5384 8.252C13.3224 8.876 14.0424 9.148 14.9384 9.148ZM15.5304 5.5C16.5064 5.5 17.0984 4.86 17.0984 4.044V4.012C17.0984 3.132 16.4744 2.476 15.4984 2.476C14.5224 2.476 13.9304 3.116 13.9304 3.996V4.028C13.9304 4.876 14.5544 5.5 15.5304 5.5ZM23.358 11.5V3.1L21.47 3.548L20.878 1.148L24.158 0.219999H26.414V11.5H23.358ZM28.14 7.82V5.164H33.388V7.82H28.14ZM36.1549 11.5V3.1L34.2669 3.548L33.6749 1.148L36.9549 0.219999H39.2109V11.5H36.1549ZM40.8249 11.5V9.164L45.0169 5.964C46.0569 5.148 46.4729 4.636 46.4729 3.948C46.4729 3.228 45.9769 2.796 45.2089 2.796C44.4569 2.796 43.8649 3.244 42.9849 4.252L40.8889 2.508C42.0889 0.971999 43.2889 0.108 45.4489 0.108C47.8809 0.108 49.5769 1.564 49.5769 3.676V3.708C49.5769 5.5 48.6489 6.428 46.9849 7.628L45.0649 8.972H49.6889V11.5H40.8249ZM55.3373 11.724C53.1613 11.724 51.6733 10.956 50.5693 9.74L52.5373 7.788C53.3533 8.604 54.1693 9.068 55.2093 9.068C56.1053 9.068 56.6333 8.62 56.6333 7.932V7.9C56.6333 7.18 56.0093 6.748 54.8093 6.748H53.4973L53.0653 5.132L55.6253 2.812H51.3533V0.299999H59.4333V2.508L56.7613 4.812C58.3612 5.164 59.6573 6.044 59.6573 7.964V7.996C59.6573 10.252 57.8173 11.724 55.3373 11.724ZM71.1756 11.5V9.324H65.7356L65.2396 7.132L71.0476 0.219999H74.1676V7.004H75.5916V9.324H74.1676V11.5H71.1756ZM68.4876 7.02H71.1756V3.788L68.4876 7.02ZM80.8949 11.724C78.9109 11.724 77.5349 11.036 76.3669 9.948L78.1429 7.868C79.0389 8.636 79.9029 9.084 80.8629 9.084C81.8869 9.084 82.4949 8.588 82.4949 7.772V7.74C82.4949 6.924 81.8229 6.444 80.8469 6.444C80.1589 6.444 79.5829 6.684 79.0549 7.004L77.2149 5.964L77.5349 0.299999H85.0229V2.86H79.9829L79.8869 4.556C80.3989 4.316 80.9269 4.156 81.6789 4.156C83.6789 4.156 85.5189 5.276 85.5189 7.708V7.74C85.5189 10.22 83.6149 11.724 80.8949 11.724ZM91.581 11.724C89.981 11.724 88.973 11.26 88.157 10.444C87.325 9.612 86.781 8.348 86.781 6.252V6.22C86.781 2.732 88.477 0.0759993 91.981 0.0759993C93.565 0.0759993 94.621 0.492 95.709 1.308L94.253 3.484C93.565 2.972 92.925 2.636 92.029 2.636C90.413 2.636 89.997 4.14 89.917 5.036C90.637 4.476 91.373 4.172 92.333 4.172C94.301 4.172 96.029 5.42 96.029 7.66V7.692C96.029 10.188 94.029 11.724 91.581 11.724ZM91.453 9.308C92.429 9.308 93.021 8.684 93.021 7.868V7.836C93.021 7.02 92.397 6.396 91.421 6.396C90.445 6.396 89.869 7.004 89.869 7.82V7.852C89.869 8.668 90.477 9.308 91.453 9.308ZM102.508 11.5L107.436 2.908H102.252V0.299999H110.876V2.636L105.932 11.5H102.508ZM116.228 11.692C113.539 11.692 111.636 10.364 111.636 8.412V8.38C111.636 7.02 112.324 6.204 113.539 5.692C112.692 5.196 112.02 4.46 112.02 3.244V3.212C112.02 1.42 113.716 0.108 116.228 0.108C118.74 0.108 120.452 1.42 120.452 3.212V3.244C120.452 4.46 119.796 5.196 118.916 5.692C120.052 6.204 120.836 6.988 120.836 8.348V8.38C120.836 10.396 118.916 11.692 116.228 11.692ZM116.228 4.844C117.06 4.844 117.62 4.316 117.62 3.612V3.58C117.62 2.956 117.108 2.396 116.228 2.396C115.38 2.396 114.852 2.956 114.852 3.58V3.612C114.852 4.316 115.396 4.844 116.228 4.844ZM116.228 9.372C117.268 9.372 117.844 8.796 117.844 8.108V8.076C117.844 7.324 117.188 6.844 116.228 6.844C115.268 6.844 114.612 7.324 114.612 8.076V8.108C114.612 8.796 115.188 9.372 116.228 9.372ZM121.906 7.82V5.164H127.154V7.82H121.906ZM132.501 9.148C134.133 9.148 134.549 7.708 134.629 6.812C133.941 7.452 133.141 7.724 132.245 7.724C130.069 7.724 128.485 6.364 128.485 4.172V4.14C128.485 1.66 130.389 0.0759993 132.949 0.0759993C134.565 0.0759993 135.541 0.523999 136.389 1.372C137.205 2.188 137.733 3.468 137.733 5.532V5.564C137.733 9.212 135.909 11.724 132.565 11.724C130.885 11.724 129.685 11.212 128.645 10.396L130.101 8.252C130.885 8.876 131.605 9.148 132.501 9.148ZM133.093 5.5C134.069 5.5 134.661 4.86 134.661 4.044V4.012C134.661 3.132 134.037 2.476 133.061 2.476C132.085 2.476 131.493 3.116 131.493 3.996V4.028C131.493 4.876 132.117 5.5 133.093 5.5ZM144.215 11.724C141.031 11.724 139.047 9.1 139.047 5.932V5.9C139.047 2.732 141.063 0.0759993 144.247 0.0759993C147.431 0.0759993 149.415 2.7 149.415 5.868V5.9C149.415 9.068 147.415 11.724 144.215 11.724ZM144.247 8.972C145.495 8.972 146.295 7.708 146.295 5.932V5.9C146.295 4.108 145.447 2.812 144.215 2.812C142.983 2.812 142.167 4.076 142.167 5.868V5.9C142.167 7.708 143.015 8.972 144.247 8.972Z" fill="#8C4AFF"/>
</svg>
