<svg width="328" height="36" viewBox="0 0 328 36" fill="none" xmlns="http://www.w3.org/2000/svg">
<path d="M19.852 35.768C16.236 35.768 12.988 35.016 10.108 33.512C7.228 32.008 4.972 29.928 3.34 27.272C1.708 24.584 0.892 21.56 0.892 18.2C0.892 14.84 1.708 11.832 3.34 9.176C4.972 6.488 7.228 4.392 10.108 2.888C12.988 1.384 16.236 0.631999 19.852 0.631999C23.468 0.631999 26.716 1.384 29.596 2.888C32.476 4.392 34.732 6.488 36.364 9.176C37.996 11.832 38.812 14.84 38.812 18.2C38.812 21.56 37.996 24.584 36.364 27.272C34.732 29.928 32.476 32.008 29.596 33.512C26.716 35.016 23.468 35.768 19.852 35.768ZM19.852 26.6C21.26 26.6 22.524 26.264 23.644 25.592C24.796 24.888 25.708 23.912 26.38 22.664C27.052 21.384 27.388 19.896 27.388 18.2C27.388 16.504 27.052 15.032 26.38 13.784C25.708 12.504 24.796 11.528 23.644 10.856C22.524 10.152 21.26 9.8 19.852 9.8C18.444 9.8 17.164 10.152 16.012 10.856C14.892 11.528 13.996 12.504 13.324 13.784C12.652 15.032 12.316 16.504 12.316 18.2C12.316 19.896 12.652 21.384 13.324 22.664C13.996 23.912 14.892 24.888 16.012 25.592C17.164 26.264 18.444 26.6 19.852 26.6ZM59.0035 35.768C53.8515 35.768 49.8355 34.376 46.9555 31.592C44.0755 28.808 42.6355 24.904 42.6355 19.88V1.4H53.9635V19.544C53.9635 22.008 54.3955 23.8 55.2595 24.92C56.1555 26.04 57.4355 26.6 59.0995 26.6C60.7635 26.6 62.0275 26.04 62.8915 24.92C63.7875 23.8 64.2355 22.008 64.2355 19.544V1.4H75.3715V19.88C75.3715 24.904 73.9315 28.808 71.0515 31.592C68.1715 34.376 64.1555 35.768 59.0035 35.768ZM94.9641 26.552H91.8921V35H80.5641V1.4H96.7401C99.8441 1.4 102.548 1.912 104.852 2.936C107.156 3.96 108.932 5.432 110.18 7.352C111.428 9.272 112.052 11.512 112.052 14.072C112.052 16.472 111.508 18.568 110.42 20.36C109.332 22.152 107.764 23.576 105.716 24.632L112.772 35H100.676L94.9641 26.552ZM100.628 14.072C100.628 12.824 100.244 11.864 99.4761 11.192C98.7081 10.488 97.5561 10.136 96.0201 10.136H91.8921V18.008H96.0201C97.5561 18.008 98.7081 17.672 99.4761 17C100.244 16.296 100.628 15.32 100.628 14.072ZM158.32 21.848C158.32 22.008 158.272 22.856 158.176 24.392H139.936C140.32 25.384 140.96 26.152 141.856 26.696C142.752 27.208 143.872 27.464 145.216 27.464C146.368 27.464 147.328 27.32 148.096 27.032C148.896 26.744 149.76 26.248 150.688 25.544L156.352 31.256C153.792 34.072 149.968 35.48 144.88 35.48C141.712 35.48 138.928 34.904 136.528 33.752C134.128 32.568 132.272 30.936 130.96 28.856C129.648 26.776 128.992 24.44 128.992 21.848C128.992 19.224 129.632 16.888 130.912 14.84C132.224 12.76 134 11.144 136.24 9.992C138.512 8.84 141.056 8.264 143.872 8.264C146.528 8.264 148.944 8.792 151.12 9.848C153.328 10.904 155.072 12.456 156.352 14.504C157.664 16.552 158.32 19 158.32 21.848ZM143.968 15.656C142.848 15.656 141.92 15.96 141.184 16.568C140.448 17.176 139.968 18.04 139.744 19.16H148.192C147.968 18.072 147.488 17.224 146.752 16.616C146.016 15.976 145.088 15.656 143.968 15.656ZM197.046 1.4L182.838 35H171.702L157.494 1.4H169.686L177.702 21.032L185.91 1.4H197.046ZM198.174 1.4H209.502V35H198.174V1.4ZM227.483 35.768C224.699 35.768 221.979 35.464 219.323 34.856C216.699 34.216 214.539 33.368 212.843 32.312L216.491 24.056C218.091 24.984 219.883 25.736 221.867 26.312C223.851 26.856 225.755 27.128 227.579 27.128C229.147 27.128 230.267 26.984 230.939 26.696C231.611 26.376 231.947 25.912 231.947 25.304C231.947 24.6 231.499 24.072 230.603 23.72C229.739 23.368 228.299 22.984 226.283 22.568C223.691 22.024 221.531 21.448 219.803 20.84C218.075 20.2 216.571 19.176 215.291 17.768C214.011 16.328 213.371 14.392 213.371 11.96C213.371 9.848 213.963 7.928 215.147 6.2C216.331 4.472 218.091 3.112 220.427 2.12C222.795 1.128 225.659 0.631999 229.019 0.631999C231.323 0.631999 233.579 0.887999 235.787 1.4C238.027 1.88 239.995 2.6 241.691 3.56L238.283 11.768C234.987 10.104 231.867 9.272 228.923 9.272C226.011 9.272 224.555 9.976 224.555 11.384C224.555 12.056 224.987 12.568 225.851 12.92C226.715 13.24 228.139 13.592 230.123 13.976C232.683 14.456 234.843 15.016 236.603 15.656C238.363 16.264 239.883 17.272 241.163 18.68C242.475 20.088 243.131 22.008 243.131 24.44C243.131 26.552 242.539 28.472 241.355 30.2C240.171 31.896 238.395 33.256 236.027 34.28C233.691 35.272 230.843 35.768 227.483 35.768ZM269.398 29.144H256.63L254.374 35H242.854L257.542 1.4H268.678L283.366 35H271.654L269.398 29.144ZM266.278 20.984L263.014 12.536L259.75 20.984H266.278ZM297.702 35.768C294.918 35.768 292.198 35.464 289.542 34.856C286.918 34.216 284.757 33.368 283.062 32.312L286.71 24.056C288.31 24.984 290.102 25.736 292.086 26.312C294.07 26.856 295.974 27.128 297.798 27.128C299.366 27.128 300.486 26.984 301.158 26.696C301.83 26.376 302.166 25.912 302.166 25.304C302.166 24.6 301.718 24.072 300.822 23.72C299.958 23.368 298.518 22.984 296.502 22.568C293.91 22.024 291.75 21.448 290.022 20.84C288.294 20.2 286.79 19.176 285.51 17.768C284.23 16.328 283.59 14.392 283.59 11.96C283.59 9.848 284.182 7.928 285.366 6.2C286.55 4.472 288.31 3.112 290.646 2.12C293.014 1.128 295.878 0.631999 299.238 0.631999C301.542 0.631999 303.798 0.887999 306.006 1.4C308.246 1.88 310.214 2.6 311.91 3.56L308.502 11.768C305.206 10.104 302.086 9.272 299.142 9.272C296.23 9.272 294.773 9.976 294.773 11.384C294.773 12.056 295.206 12.568 296.07 12.92C296.934 13.24 298.358 13.592 300.342 13.976C302.902 14.456 305.062 15.016 306.822 15.656C308.582 16.264 310.102 17.272 311.382 18.68C312.694 20.088 313.35 22.008 313.35 24.44C313.35 26.552 312.758 28.472 311.574 30.2C310.39 31.896 308.614 33.256 306.246 34.28C303.91 35.272 301.062 35.768 297.702 35.768ZM321.046 20.648C319.222 20.648 317.702 20.072 316.486 18.92C315.302 17.736 314.71 16.232 314.71 14.408C314.71 12.584 315.302 11.112 316.486 9.992C317.702 8.84 319.222 8.264 321.046 8.264C322.87 8.264 324.374 8.84 325.558 9.992C326.774 11.112 327.382 12.584 327.382 14.408C327.382 16.232 326.774 17.736 325.558 18.92C324.374 20.072 322.87 20.648 321.046 20.648ZM321.046 35.48C319.222 35.48 317.702 34.904 316.486 33.752C315.302 32.568 314.71 31.064 314.71 29.24C314.71 27.416 315.302 25.944 316.486 24.824C317.702 23.672 319.222 23.096 321.046 23.096C322.87 23.096 324.374 23.672 325.558 24.824C326.774 25.944 327.382 27.416 327.382 29.24C327.382 31.064 326.774 32.568 325.558 33.752C324.374 34.904 322.87 35.48 321.046 35.48Z" fill="url(#paint0_linear_387_1161)"/>
<defs>
<linearGradient id="paint0_linear_387_1161" x1="-0.5" y1="0.0681815" x2="275.383" y2="102.717" gradientUnits="userSpaceOnUse">
<stop stop-color="#04C495"/>
<stop offset="1" stop-color="#8C4AFF"/>
</linearGradient>
</defs>
</svg>
