<svg width="135" height="26" viewBox="0 0 135 26" fill="none" xmlns="http://www.w3.org/2000/svg">
<path d="M0.71 25V4H10.82C12.78 4 14.47 4.32 15.89 4.96C17.33 5.6 18.44 6.52 19.22 7.72C20 8.9 20.39 10.3 20.39 11.92C20.39 13.54 20 14.94 19.22 16.12C18.44 17.28 17.33 18.17 15.89 18.79C14.47 19.41 12.78 19.72 10.82 19.72H4.64L7.79 16.81V25H0.71ZM13.28 25L8.12 17.35H15.62L20.84 25H13.28ZM7.79 17.59L4.64 14.38H10.37C11.35 14.38 12.07 14.16 12.53 13.72C13.01 13.28 13.25 12.68 13.25 11.92C13.25 11.16 13.01 10.56 12.53 10.12C12.07 9.68 11.35 9.46 10.37 9.46H4.64L7.79 6.25V17.59ZM31.9135 25.3C29.9135 25.3 28.1635 24.93 26.6635 24.19C25.1835 23.45 24.0335 22.44 23.2135 21.16C22.3935 19.86 21.9835 18.4 21.9835 16.78C21.9835 15.12 22.3835 13.65 23.1835 12.37C24.0035 11.09 25.1135 10.09 26.5135 9.37C27.9335 8.65 29.5235 8.29 31.2835 8.29C32.9035 8.29 34.3935 8.61 35.7535 9.25C37.1335 9.89 38.2335 10.84 39.0535 12.1C39.8935 13.36 40.3135 14.92 40.3135 16.78C40.3135 17.02 40.3035 17.29 40.2835 17.59C40.2635 17.87 40.2435 18.13 40.2235 18.37H27.5935V15.1H36.6235L34.0735 15.97C34.0735 15.33 33.9535 14.79 33.7135 14.35C33.4935 13.89 33.1835 13.54 32.7835 13.3C32.3835 13.04 31.9035 12.91 31.3435 12.91C30.7835 12.91 30.2935 13.04 29.8735 13.3C29.4735 13.54 29.1635 13.89 28.9435 14.35C28.7235 14.79 28.6135 15.33 28.6135 15.97V16.99C28.6135 17.69 28.7535 18.29 29.0335 18.79C29.3135 19.29 29.7135 19.67 30.2335 19.93C30.7535 20.17 31.3835 20.29 32.1235 20.29C32.8835 20.29 33.5035 20.19 33.9835 19.99C34.4835 19.79 35.0035 19.49 35.5435 19.09L39.0835 22.66C38.2835 23.52 37.2935 24.18 36.1135 24.64C34.9535 25.08 33.5535 25.3 31.9135 25.3ZM46.8102 25L40.2102 8.59H47.1702L52.1802 21.91H48.6702L54.0102 8.59H60.4302L53.8302 25H46.8102ZM61.4668 25V8.59H68.2468V25H61.4668ZM64.8568 7.27C63.6168 7.27 62.6268 6.94 61.8868 6.28C61.1468 5.62 60.7768 4.8 60.7768 3.82C60.7768 2.84 61.1468 2.02 61.8868 1.36C62.6268 0.699999 63.6168 0.369999 64.8568 0.369999C66.0968 0.369999 67.0868 0.679999 67.8268 1.3C68.5668 1.92 68.9368 2.72 68.9368 3.7C68.9368 4.74 68.5668 5.6 67.8268 6.28C67.0868 6.94 66.0968 7.27 64.8568 7.27ZM80.312 25.3C78.312 25.3 76.562 24.93 75.062 24.19C73.582 23.45 72.432 22.44 71.612 21.16C70.792 19.86 70.382 18.4 70.382 16.78C70.382 15.12 70.782 13.65 71.582 12.37C72.402 11.09 73.512 10.09 74.912 9.37C76.332 8.65 77.922 8.29 79.682 8.29C81.302 8.29 82.792 8.61 84.152 9.25C85.532 9.89 86.632 10.84 87.452 12.1C88.292 13.36 88.712 14.92 88.712 16.78C88.712 17.02 88.702 17.29 88.682 17.59C88.662 17.87 88.642 18.13 88.622 18.37H75.992V15.1H85.022L82.472 15.97C82.472 15.33 82.352 14.79 82.112 14.35C81.892 13.89 81.582 13.54 81.182 13.3C80.782 13.04 80.302 12.91 79.742 12.91C79.182 12.91 78.692 13.04 78.272 13.3C77.872 13.54 77.562 13.89 77.342 14.35C77.122 14.79 77.012 15.33 77.012 15.97V16.99C77.012 17.69 77.152 18.29 77.432 18.79C77.712 19.29 78.112 19.67 78.632 19.93C79.152 20.17 79.782 20.29 80.522 20.29C81.282 20.29 81.902 20.19 82.382 19.99C82.882 19.79 83.402 19.49 83.942 19.09L87.482 22.66C86.682 23.52 85.692 24.18 84.512 24.64C83.352 25.08 81.952 25.3 80.312 25.3ZM94.5786 25L88.8786 8.59H95.2986L99.6186 21.91H96.5286L101.059 8.59H106.819L111.139 21.91H108.139L112.609 8.59H118.549L112.849 25H106.249L102.799 14.44H104.779L101.179 25H94.5786ZM125.982 25.3C124.583 25.3 123.203 25.15 121.843 24.85C120.483 24.55 119.383 24.16 118.543 23.68L120.403 19.21C121.183 19.67 122.083 20.03 123.103 20.29C124.143 20.55 125.153 20.68 126.133 20.68C126.953 20.68 127.503 20.61 127.783 20.47C128.083 20.33 128.233 20.14 128.233 19.9C128.233 19.66 128.063 19.49 127.723 19.39C127.383 19.27 126.933 19.18 126.373 19.12C125.813 19.06 125.193 18.99 124.513 18.91C123.853 18.81 123.183 18.67 122.503 18.49C121.823 18.31 121.203 18.04 120.643 17.68C120.083 17.32 119.633 16.84 119.293 16.24C118.953 15.62 118.783 14.84 118.783 13.9C118.783 12.86 119.093 11.92 119.713 11.08C120.353 10.24 121.293 9.57 122.533 9.07C123.793 8.55 125.343 8.29 127.183 8.29C128.383 8.29 129.583 8.4 130.783 8.62C131.983 8.84 133.013 9.18 133.873 9.64L132.013 14.11C131.173 13.65 130.343 13.34 129.523 13.18C128.723 13 127.973 12.91 127.273 12.91C126.413 12.91 125.823 12.99 125.503 13.15C125.203 13.31 125.053 13.49 125.053 13.69C125.053 13.93 125.223 14.11 125.562 14.23C125.903 14.35 126.353 14.44 126.913 14.5C127.473 14.56 128.083 14.64 128.743 14.74C129.423 14.82 130.093 14.96 130.753 15.16C131.433 15.34 132.053 15.61 132.613 15.97C133.173 16.33 133.623 16.82 133.963 17.44C134.303 18.04 134.473 18.81 134.473 19.75C134.473 20.73 134.163 21.65 133.543 22.51C132.923 23.35 131.983 24.03 130.723 24.55C129.463 25.05 127.883 25.3 125.982 25.3Z" fill="#04C495"/>
</svg>
