<svg width="63" height="44" viewBox="0 0 63 44" fill="none" xmlns="http://www.w3.org/2000/svg">
<rect x="1" y="1" width="61" height="42" rx="9.5" fill="white" stroke="#E0E0E0"/>
<path fill-rule="evenodd" clip-rule="evenodd" d="M41.5587 13.3324C40.769 12.9831 39.3958 12.6021 38.3061 12.6021C34.5906 12.6021 31.9765 14.6789 31.9444 17.774C31.9181 20.1757 33.8639 21.3804 35.2672 22.2491L35.2952 22.2664C36.7005 23.1345 37.0858 23.4838 37.0782 24.1866C37.0688 25.1753 35.994 25.7427 34.7417 25.7427C33.3742 25.7427 32.6961 25.5035 31.0963 24.7519L30.4314 28.1922C32.0029 28.8166 32.698 28.9988 34.6246 29.0306C38.8481 29.0306 40.8504 26.4074 40.8747 23.7484C40.8974 22.4676 40.6594 21.2884 38.8481 19.9758C38.3939 19.6462 37.9434 19.3674 37.532 19.1126C36.5054 18.4771 35.7202 17.991 35.7202 17.2384C35.7202 16.5906 36.6079 15.9152 38.0435 15.8877C39.0314 15.8729 40.2061 16.3069 40.9201 16.6287L41.5587 13.3324ZM25.6619 12.8963L21.8352 12.8921L17.999 23.6553L17.6315 21.4621C17.0362 17.9091 16.6558 15.6382 16.4879 14.6493C16.2895 13.4722 15.6719 12.8985 14.6142 12.8985H8.5V13.3324C9.99596 13.8511 11.0631 14.2322 11.7035 14.4799C12.4231 14.7572 12.7971 15.3437 12.986 16.182C13.9359 20.3886 14.898 24.5917 15.8721 28.7911L19.7461 28.7956L25.6619 12.8963ZM50.4738 28.7934L50.0488 26.4117H45.3003L44.5446 28.7765L40.7387 28.7848C42.5506 23.9011 44.3664 19.0192 46.1862 14.139C46.4959 13.3113 47.0455 12.89 47.8559 12.8942C48.4755 12.9006 49.4858 12.9006 50.8894 12.8963L53.832 28.787L50.4738 28.7934ZM46.3695 23.1493H49.4294L48.2865 17.1791L46.3695 23.1493ZM30.9206 12.8963L27.8947 28.7911L24.253 28.787L27.2752 12.8921L30.9206 12.8963Z" fill="#0121BC"/>
</svg>
